<?xml version="1.0" encoding="utf-8"?>
<!-- Generator: Adobe Illustrator 28.0.0, SVG Export Plug-In . SVG Version: 6.00 Build 0)  -->
<svg version="1.1" id="Layer_1" xmlns="http://www.w3.org/2000/svg" xmlns:xlink="http://www.w3.org/1999/xlink" x="0px" y="0px"
	 viewBox="0 0 216 218.6" style="enable-background:new 0 0 216 218.6;" xml:space="preserve">
<style type="text/css">
	.st0{fill:#AA351D;}
	.st1{fill:#FFCD00;}
	.st2{fill:#FFFFFF;}
</style>
<g>
	<g>
		<circle class="st0" cx="22.3" cy="31.8" r="11.8"/>
		<circle class="st1" cx="18.6" cy="24.4" r="11.8"/>
	</g>
	<g>
		<circle class="st0" cx="65.9" cy="31.8" r="11.8"/>
		<circle class="st2" cx="62.2" cy="24.4" r="11.8"/>
	</g>
	<g>
		<circle class="st0" cx="109.5" cy="31.8" r="11.8"/>
		<circle class="st1" cx="105.8" cy="24.4" r="11.8"/>
	</g>
	<g>
		<circle class="st0" cx="153.1" cy="31.8" r="11.8"/>
		<circle class="st2" cx="149.3" cy="24.4" r="11.8"/>
	</g>
	<g>
		<circle class="st0" cx="198.9" cy="73.3" r="11.8"/>
		<circle class="st2" cx="195.2" cy="65.8" r="11.8"/>
	</g>
	<g>
		<circle class="st0" cx="198.9" cy="113.2" r="11.8"/>
		<circle class="st1" cx="195.2" cy="105.7" r="11.8"/>
	</g>
	<g>
		<circle class="st0" cx="198.9" cy="156.7" r="11.8"/>
		<circle class="st2" cx="195.2" cy="149.3" r="11.8"/>
	</g>
	<g>
		<circle class="st0" cx="22.3" cy="73.3" r="11.8"/>
		<circle class="st2" cx="18.6" cy="65.8" r="11.8"/>
	</g>
	<g>
		<circle class="st0" cx="22.3" cy="113.2" r="11.8"/>
		<circle class="st1" cx="18.6" cy="105.7" r="11.8"/>
	</g>
	<g>
		<circle class="st0" cx="22.3" cy="156.7" r="11.8"/>
		<circle class="st2" cx="18.6" cy="149.3" r="11.8"/>
	</g>
	<g>
		<circle class="st0" cx="198.9" cy="31.8" r="11.8"/>
		<circle class="st1" cx="195.2" cy="24.4" r="11.8"/>
	</g>
	<g>
		<circle class="st0" cx="22.3" cy="196.8" r="11.8"/>
		<circle class="st1" cx="18.6" cy="189.4" r="11.8"/>
	</g>
	<g>
		<circle class="st0" cx="65.9" cy="196.8" r="11.8"/>
		<circle class="st2" cx="62.2" cy="189.4" r="11.8"/>
	</g>
	<g>
		<circle class="st0" cx="109.5" cy="196.8" r="11.8"/>
		<circle class="st1" cx="105.8" cy="189.4" r="11.8"/>
	</g>
	<g>
		<circle class="st0" cx="153.1" cy="196.8" r="11.8"/>
		<circle class="st2" cx="149.3" cy="189.4" r="11.8"/>
	</g>
	<g>
		<circle class="st0" cx="198.9" cy="196.8" r="11.8"/>
		<circle class="st1" cx="195.2" cy="189.4" r="11.8"/>
	</g>
</g>
</svg>
