<?xml version="1.0" encoding="utf-8"?>
<!-- Generator: Adobe Illustrator 28.0.0, SVG Export Plug-In . SVG Version: 6.00 Build 0)  -->
<svg version="1.1" id="Layer_1" xmlns="http://www.w3.org/2000/svg" xmlns:xlink="http://www.w3.org/1999/xlink" x="0px" y="0px"
	 viewBox="0 0 216 218.6" style="enable-background:new 0 0 216 218.6;" xml:space="preserve">
<style type="text/css">
	.st0{fill:#FDDEFF;}
</style>
<polygon class="st0" points="118,1.7 107.7,12 107.7,15.2 107.7,18.4 110.8,15.2 110.8,15.2 121.1,4.9 124.3,1.7 121.1,1.7 "/>
<polygon class="st0" points="131.4,1.7 121.1,12 118,15.2 107.7,25.5 107.7,28.6 107.7,31.8 110.8,28.6 110.8,28.6 121.1,18.4 
	124.3,15.2 124.3,15.2 134.6,4.9 137.8,1.7 134.6,1.7 "/>
<polygon class="st0" points="144.9,1.7 134.6,12 131.4,15.2 121.1,25.5 118,28.6 107.7,38.9 107.7,42.1 107.7,45.3 110.8,42.1 
	110.8,42.1 121.1,31.8 124.3,28.6 124.3,28.6 134.6,18.4 137.8,15.2 137.8,15.2 148,4.9 151.2,1.7 148,1.7 "/>
<polygon class="st0" points="121.1,99.1 124.3,95.9 124.3,95.9 134.6,85.6 137.8,82.5 137.8,82.5 148,72.2 151.2,69 151.2,69 
	161.5,58.7 164.7,55.6 164.7,55.6 175,45.3 178.1,42.1 178.1,42.1 188.4,31.8 191.6,28.6 191.6,28.6 201.9,18.4 205,15.2 205,15.2 
	215.3,4.9 215.3,1.7 212.2,1.7 201.9,12 198.7,15.2 188.4,25.5 185.2,28.6 175,38.9 171.8,42.1 161.5,52.4 158.3,55.6 148,65.8 
	144.9,69 134.6,79.3 131.4,82.5 121.1,92.8 118,95.9 107.7,106.2 107.7,109.4 110.8,109.4 "/>
<polygon class="st0" points="137.8,95.9 137.8,95.9 148,85.6 151.2,82.5 151.2,82.5 161.5,72.2 164.7,69 164.7,69 175,58.7 
	178.1,55.6 178.1,55.6 188.4,45.3 191.6,42.1 191.6,42.1 201.9,31.8 205,28.6 205,28.6 215.3,18.4 215.3,15.2 215.3,12 212.2,15.2 
	201.9,25.5 198.7,28.6 188.4,38.9 185.2,42.1 175,52.4 171.8,55.6 161.5,65.8 158.3,69 148,79.3 144.9,82.5 134.6,92.8 131.4,95.9 
	121.1,106.2 118,109.4 121.1,109.4 124.3,109.4 134.6,99.1 "/>
<polygon class="st0" points="151.2,95.9 151.2,95.9 161.5,85.6 164.7,82.5 164.7,82.5 175,72.2 178.1,69 178.1,69 188.4,58.7 
	191.6,55.6 191.6,55.6 201.9,45.3 205,42.1 205,42.1 215.3,31.8 215.3,28.6 215.3,25.5 212.2,28.6 201.9,38.9 198.7,42.1 
	188.4,52.4 185.2,55.6 175,65.8 171.8,69 161.5,79.3 158.3,82.5 148,92.8 144.9,95.9 134.6,106.2 131.4,109.4 134.6,109.4 
	137.8,109.4 148,99.1 "/>
<polygon class="st0" points="164.7,95.9 164.7,95.9 175,85.6 178.1,82.5 178.1,82.5 188.4,72.2 191.6,69 191.6,69 201.9,58.7 
	205,55.6 205,55.6 215.3,45.3 215.3,42.1 215.3,38.9 212.2,42.1 201.9,52.4 198.7,55.6 188.4,65.8 185.2,69 175,79.3 171.8,82.5 
	161.5,92.8 158.3,95.9 148,106.2 144.9,109.4 148,109.4 151.2,109.4 161.5,99.1 "/>
<polygon class="st0" points="158.3,1.7 148,12 144.9,15.2 134.6,25.5 131.4,28.6 121.1,38.9 118,42.1 107.7,52.4 107.7,55.6 
	107.7,58.7 110.8,55.6 110.8,55.6 121.1,45.3 124.3,42.1 124.3,42.1 134.6,31.8 137.8,28.6 137.8,28.6 148,18.4 151.2,15.2 
	151.2,15.2 161.5,4.9 164.7,1.7 161.5,1.7 "/>
<polygon class="st0" points="171.8,1.7 161.5,12 158.3,15.2 148,25.5 144.9,28.6 134.6,38.9 131.4,42.1 121.1,52.4 118,55.6 
	107.7,65.8 107.7,69 107.7,72.2 110.8,69 110.8,69 121.1,58.7 124.3,55.6 124.3,55.6 134.6,45.3 137.8,42.1 137.8,42.1 148,31.8 
	151.2,28.6 151.2,28.6 161.5,18.4 164.7,15.2 164.7,15.2 175,4.9 178.1,1.7 175,1.7 "/>
<polygon class="st0" points="185.2,1.7 175,12 171.8,15.2 161.5,25.5 158.3,28.6 148,38.9 144.9,42.1 134.6,52.4 131.4,55.6 
	121.1,65.8 118,69 107.7,79.3 107.7,82.5 107.7,85.6 110.8,82.5 110.8,82.5 121.1,72.2 124.3,69 124.3,69 134.6,58.7 137.8,55.6 
	137.8,55.6 148,45.3 151.2,42.1 151.2,42.1 161.5,31.8 164.7,28.6 164.7,28.6 175,18.4 178.1,15.2 178.1,15.2 188.4,4.9 191.6,1.7 
	188.4,1.7 "/>
<polygon class="st0" points="198.7,1.7 188.4,12 185.2,15.2 175,25.5 171.8,28.6 161.5,38.9 158.3,42.1 148,52.4 144.9,55.6 
	134.6,65.8 131.4,69 121.1,79.3 118,82.5 107.7,92.8 107.7,95.9 107.7,99.1 110.8,95.9 110.8,95.9 121.1,85.6 124.3,82.5 
	124.3,82.5 134.6,72.2 137.8,69 137.8,69 148,58.7 151.2,55.6 151.2,55.6 161.5,45.3 164.7,42.1 164.7,42.1 175,31.8 178.1,28.6 
	178.1,28.6 188.4,18.4 191.6,15.2 191.6,15.2 201.9,4.9 205,1.7 201.9,1.7 "/>
<polygon class="st0" points="178.1,95.9 178.1,95.9 188.4,85.6 191.6,82.5 191.6,82.5 201.9,72.2 205,69 205,69 215.3,58.7 
	215.3,55.6 215.3,52.4 212.2,55.6 201.9,65.8 198.7,69 188.4,79.3 185.2,82.5 175,92.8 171.8,95.9 161.5,106.2 158.3,109.4 
	161.5,109.4 164.7,109.4 175,99.1 "/>
<polygon class="st0" points="191.6,95.9 191.6,95.9 201.9,85.6 205,82.5 205,82.5 215.3,72.2 215.3,69 215.3,65.8 212.2,69 
	201.9,79.3 198.7,82.5 188.4,92.8 185.2,95.9 175,106.2 171.8,109.4 175,109.4 178.1,109.4 188.4,99.1 "/>
<polygon class="st0" points="205,95.9 205,95.9 215.3,85.6 215.3,82.5 215.3,79.3 212.2,82.5 201.9,92.8 198.7,95.9 188.4,106.2 
	185.2,109.4 188.4,109.4 191.6,109.4 201.9,99.1 "/>
<polygon class="st0" points="215.3,95.9 215.3,92.8 212.2,95.9 201.9,106.2 198.7,109.4 201.9,109.4 205,109.4 215.3,99.1 "/>
<polygon class="st0" points="0,109.4 0,112.6 3.2,109.4 "/>
<polygon class="st0" points="3.2,122.8 13.5,112.6 16.6,109.4 13.5,109.4 10.3,109.4 0,119.7 0,122.8 0,126 3.2,122.8 "/>
<polygon class="st0" points="3.2,136.3 13.5,126 16.6,122.8 16.6,122.8 26.9,112.6 30.1,109.4 26.9,109.4 23.7,109.4 13.5,119.7 
	10.3,122.8 0,133.1 0,136.3 0,139.5 3.2,136.3 "/>
<polygon class="st0" points="3.2,149.8 13.5,139.5 16.6,136.3 16.6,136.3 26.9,126 30.1,122.8 30.1,122.8 40.4,112.6 43.5,109.4 
	40.4,109.4 37.2,109.4 26.9,119.7 23.7,122.8 13.5,133.1 10.3,136.3 0,146.6 0,149.8 0,152.9 3.2,149.8 "/>
<polygon class="st0" points="104.5,109.4 94.2,119.7 91,122.8 80.7,133.1 77.6,136.3 67.3,146.6 64.1,149.8 53.8,160 50.7,163.2 
	40.4,173.5 37.2,176.7 26.9,187 23.7,190.1 13.5,200.4 10.3,203.6 0,213.9 0,217.1 3.2,217.1 13.5,206.8 16.6,203.6 16.6,203.6 
	26.9,193.3 30.1,190.1 30.1,190.1 40.4,179.8 43.5,176.7 43.5,176.7 53.8,166.4 57,163.2 57,163.2 67.3,152.9 70.5,149.8 
	70.5,149.8 80.7,139.5 83.9,136.3 83.9,136.3 94.2,126 97.4,122.8 97.4,122.8 107.7,112.6 107.7,109.4 "/>
<polygon class="st0" points="107.7,119.7 104.5,122.8 94.2,133.1 91,136.3 80.7,146.6 77.6,149.8 67.3,160 64.1,163.2 53.8,173.5 
	50.7,176.7 40.4,187 37.2,190.1 26.9,200.4 23.7,203.6 13.5,213.9 10.3,217.1 13.5,217.1 16.6,217.1 26.9,206.8 30.1,203.6 
	30.1,203.6 40.4,193.3 43.5,190.1 43.5,190.1 53.8,179.8 57,176.7 57,176.7 67.3,166.4 70.5,163.2 70.5,163.2 80.7,152.9 
	83.9,149.8 83.9,149.8 94.2,139.5 97.4,136.3 97.4,136.3 107.7,126 107.7,122.8 "/>
<polygon class="st0" points="107.7,133.1 104.5,136.3 94.2,146.6 91,149.8 80.7,160 77.6,163.2 67.3,173.5 64.1,176.7 53.8,187 
	50.7,190.1 40.4,200.4 37.2,203.6 26.9,213.9 23.7,217.1 26.9,217.1 30.1,217.1 40.4,206.8 43.5,203.6 43.5,203.6 53.8,193.3 
	57,190.1 57,190.1 67.3,179.8 70.5,176.7 70.5,176.7 80.7,166.4 83.9,163.2 83.9,163.2 94.2,152.9 97.4,149.8 97.4,149.8 
	107.7,139.5 107.7,136.3 "/>
<polygon class="st0" points="107.7,146.6 104.5,149.8 94.2,160 91,163.2 80.7,173.5 77.6,176.7 67.3,187 64.1,190.1 53.8,200.4 
	50.7,203.6 40.4,213.9 37.2,217.1 40.4,217.1 43.5,217.1 53.8,206.8 57,203.6 57,203.6 67.3,193.3 70.5,190.1 70.5,190.1 
	80.7,179.8 83.9,176.7 83.9,176.7 94.2,166.4 97.4,163.2 97.4,163.2 107.7,152.9 107.7,149.8 "/>
<polygon class="st0" points="3.2,163.2 13.5,152.9 16.6,149.8 16.6,149.8 26.9,139.5 30.1,136.3 30.1,136.3 40.4,126 43.5,122.8 
	43.5,122.8 53.8,112.6 57,109.4 53.8,109.4 50.7,109.4 40.4,119.7 37.2,122.8 26.9,133.1 23.7,136.3 13.5,146.6 10.3,149.8 0,160 
	0,163.2 0,166.4 3.2,163.2 "/>
<polygon class="st0" points="3.2,176.7 13.5,166.4 16.6,163.2 16.6,163.2 26.9,152.9 30.1,149.8 30.1,149.8 40.4,139.5 43.5,136.3 
	43.5,136.3 53.8,126 57,122.8 57,122.8 67.3,112.6 70.5,109.4 67.3,109.4 64.1,109.4 53.8,119.7 50.7,122.8 40.4,133.1 37.2,136.3 
	26.9,146.6 23.7,149.8 13.5,160 10.3,163.2 0,173.5 0,176.7 0,179.8 3.2,176.7 "/>
<polygon class="st0" points="3.2,190.1 13.5,179.8 16.6,176.7 16.6,176.7 26.9,166.4 30.1,163.2 30.1,163.2 40.4,152.9 43.5,149.8 
	43.5,149.8 53.8,139.5 57,136.3 57,136.3 67.3,126 70.5,122.8 70.5,122.8 80.7,112.6 83.9,109.4 80.7,109.4 77.6,109.4 67.3,119.7 
	64.1,122.8 53.8,133.1 50.7,136.3 40.4,146.6 37.2,149.8 26.9,160 23.7,163.2 13.5,173.5 10.3,176.7 0,187 0,190.1 0,193.3 
	3.2,190.1 "/>
<polygon class="st0" points="3.2,203.6 13.5,193.3 16.6,190.1 16.6,190.1 26.9,179.8 30.1,176.7 30.1,176.7 40.4,166.4 43.5,163.2 
	43.5,163.2 53.8,152.9 57,149.8 57,149.8 67.3,139.5 70.5,136.3 70.5,136.3 80.7,126 83.9,122.8 83.9,122.8 94.2,112.6 97.4,109.4 
	94.2,109.4 91,109.4 80.7,119.7 77.6,122.8 67.3,133.1 64.1,136.3 53.8,146.6 50.7,149.8 40.4,160 37.2,163.2 26.9,173.5 
	23.7,176.7 13.5,187 10.3,190.1 0,200.4 0,203.6 0,206.8 3.2,203.6 "/>
<polygon class="st0" points="107.7,160 104.5,163.2 94.2,173.5 91,176.7 80.7,187 77.6,190.1 67.3,200.4 64.1,203.6 53.8,213.9 
	50.7,217.1 53.8,217.1 57,217.1 67.3,206.8 70.5,203.6 70.5,203.6 80.7,193.3 83.9,190.1 83.9,190.1 94.2,179.8 97.4,176.7 
	97.4,176.7 107.7,166.4 107.7,163.2 "/>
<polygon class="st0" points="107.7,173.5 104.5,176.7 94.2,187 91,190.1 80.7,200.4 77.6,203.6 67.3,213.9 64.1,217.1 67.3,217.1 
	70.5,217.1 80.7,206.8 83.9,203.6 83.9,203.6 94.2,193.3 97.4,190.1 97.4,190.1 107.7,179.8 107.7,176.7 "/>
<polygon class="st0" points="107.7,187 104.5,190.1 94.2,200.4 91,203.6 80.7,213.9 77.6,217.1 80.7,217.1 83.9,217.1 94.2,206.8 
	97.4,203.6 97.4,203.6 107.7,193.3 107.7,190.1 "/>
<polygon class="st0" points="107.7,200.4 104.5,203.6 94.2,213.9 91,217.1 94.2,217.1 97.4,217.1 107.7,206.8 107.7,203.6 "/>
<polygon class="st0" points="104.5,217.1 107.7,217.1 107.7,213.9 "/>
<polygon class="st0" points="215.3,213.9 215.3,206.8 215.3,203.6 215.3,200.4 215.3,193.3 215.3,190.1 215.3,187 215.3,179.8 
	215.3,176.7 215.3,173.5 215.3,166.4 215.3,163.2 215.3,160 215.3,152.9 215.3,149.8 215.3,146.6 215.3,139.5 215.3,136.3 
	215.3,133.1 215.3,126 215.3,122.8 215.3,119.7 215.3,112.6 215.3,109.4 212.2,109.4 205,109.4 201.9,109.4 198.7,109.4 
	191.6,109.4 188.4,109.4 185.2,109.4 178.1,109.4 175,109.4 171.8,109.4 164.7,109.4 161.5,109.4 158.3,109.4 151.2,109.4 
	148,109.4 144.9,109.4 137.8,109.4 134.6,109.4 131.4,109.4 124.3,109.4 121.1,109.4 118,109.4 110.8,109.4 107.7,109.4 
	107.7,112.6 107.7,119.7 107.7,122.8 107.7,126 107.7,133.1 107.7,136.3 107.7,139.5 107.7,146.6 107.7,149.8 107.7,152.9 
	107.7,160 107.7,163.2 107.7,166.4 107.7,173.5 107.7,176.7 107.7,179.8 107.7,187 107.7,190.1 107.7,193.3 107.7,200.4 
	107.7,203.6 107.7,206.8 107.7,213.9 107.7,217.1 110.8,217.1 118,217.1 121.1,217.1 124.3,217.1 131.4,217.1 134.6,217.1 
	137.8,217.1 144.9,217.1 148,217.1 151.2,217.1 158.3,217.1 161.5,217.1 164.7,217.1 171.8,217.1 175,217.1 178.1,217.1 
	185.2,217.1 188.4,217.1 191.6,217.1 198.7,217.1 201.9,217.1 205,217.1 212.2,217.1 215.3,217.1 "/>
</svg>
