<?xml version="1.0" encoding="UTF-8"?><svg id="Layer_1" xmlns="http://www.w3.org/2000/svg" xmlns:xlink="http://www.w3.org/1999/xlink" viewBox="0 0 1224 255.28"><defs><style>.cls-1{fill:url(#linear-gradient);}.cls-2{fill:#283a97;}.cls-3{fill:url(#linear-gradient-3);}.cls-4{fill:url(#linear-gradient-4);}.cls-5{fill:url(#linear-gradient-2);}.cls-6{fill:url(#linear-gradient-6);}.cls-7{fill:url(#linear-gradient-5);}</style><linearGradient id="linear-gradient" x1="3.55" y1="81.25" x2="192.72" y2="266.38" gradientUnits="userSpaceOnUse"><stop offset=".1" stop-color="#00babc"/><stop offset=".12" stop-color="#00b6ba"/><stop offset=".29" stop-color="#088dab"/><stop offset=".46" stop-color="#0f6c9e"/><stop offset=".62" stop-color="#145496"/><stop offset=".77" stop-color="#174690"/><stop offset=".9" stop-color="#18428f"/></linearGradient><linearGradient id="linear-gradient-2" x1="102.57" y1="-19.93" x2="291.74" y2="165.2" xlink:href="#linear-gradient"/><linearGradient id="linear-gradient-3" x1="44.42" y1="39.49" x2="233.59" y2="224.62" xlink:href="#linear-gradient"/><linearGradient id="linear-gradient-4" x1="43.24" y1="40.69" x2="232.41" y2="225.82" xlink:href="#linear-gradient"/><linearGradient id="linear-gradient-5" x1="-17.24" y1="102.49" x2="171.93" y2="287.62" xlink:href="#linear-gradient"/><linearGradient id="linear-gradient-6" x1="82.99" y1=".07" x2="272.16" y2="185.2" xlink:href="#linear-gradient"/></defs><g><path class="cls-1" d="m49.93,204.83c-.76-23.21,1.52-44.25,6.94-64.13,5.38-19.72,19.49-47.18,26.9-59.13-14.41,4.04-31.34,11.08-42.7,16.77-11.47,5.74-21.39,12.53-28.83,17.88-.61,1.57-2.36,6.11-3.46,9.07,2.95,9.49,14.02,40.97,41.15,79.54Z"/><path class="cls-5" d="m189.51,108.22c3.66-14.52,5.96-32.71,6.67-45.39.72-12.81-.24-24.79-1.19-33.9-1.06-1.3-4.13-5.08-6.16-7.51-10.11-2.25-42.72-8.18-89.47-3.82,20.52,10.88,37.64,23.31,52.2,37.9,14.44,14.47,31.26,40.36,37.95,52.73Z"/><path class="cls-3" d="m107.37,38.19c-10.41-6.9-20.84-11.96-28.89-15.62-1.86.29-5.36.83-8.06,1.27-6.37,6.95-25.68,29.59-44.13,66.98,17.62-10.19,34.99-17.44,52.92-22.11,17.88-4.66,43.73-6.24,59.22-6.27-10.59-9.7-23.03-18.92-31.06-24.25Z"/><path class="cls-4" d="m113.61,186.25c10.71,10.46,25.27,21.6,35.88,28.59,10.71,7.06,21.55,12.25,29.9,16.02,1.66-.26,6.47-1.02,9.59-1.55,7.03-7.6,28.55-32.81,48.29-75.41-19.71,12.27-39.08,20.81-59,26.06-19.77,5.21-50.6,6.72-64.66,6.29Z"/><path class="cls-7" d="m69.86,148.94c-3.09,14.02-4.86,29.4-5.45,39.03-.77,12.47.08,24.03.93,32.82,1.18,1.46,3.4,4.23,5.14,6.34,9.21,2.04,38.48,7.42,80.07,4.69-17.64-10.16-32.61-21.57-45.62-34.75-12.38-12.54-26.93-34.12-35.06-48.13Z"/><path class="cls-6" d="m179.22,165.15c13.68-4.38,27.85-10.59,36.47-14.92,11.15-5.6,20.73-12.15,27.91-17.31.67-1.76,1.94-5.07,2.9-7.63-2.87-8.99-12.95-37-36.22-71.56.09,20.35-2.24,39.03-7.09,56.91-4.61,17.02-15.95,40.45-23.96,54.52Z"/></g><g><g><path class="cls-2" d="m311.63,138.9v20.01h-17.18V4.01h17.89v60.26c8.47-14.83,24.95-22.36,43.08-22.36,31.78,0,54.14,26.13,54.14,59.79s-22.36,59.56-54.14,59.56c-18.6,0-35.31-7.3-43.79-22.36Zm79.57-37.19c0-24.48-16.95-42.37-39.78-42.37s-39.08,18.36-39.08,42.37,17.18,42.14,39.08,42.14,39.78-17.89,39.78-42.14Z"/><path class="cls-2" d="m423.2,4.01h17.89v154.9h-17.89V4.01Z"/><path class="cls-2" d="m457.57,115.83V44.26h17.89v69.21c0,21.42,10.36,30.37,28.96,30.37,20.71,0,32.72-16.95,32.72-34.6V44.26h17.89v114.64h-17.19v-20.24c-7.06,14.83-23.54,22.6-38.61,22.6-28.25,0-41.67-14.83-41.67-45.43Z"/><path class="cls-2" d="m568.67,101.7c0-33.19,24.95-59.79,57.67-59.79,30.6,0,54.85,26.36,54.85,59.09,0,3.3-.47,6.83-.47,7.06h-93.46c2.82,22.83,20.48,37.19,41.67,37.19,12.95,0,25.9-4.47,35.31-12.24l7.77,13.18c-12.24,9.65-27.54,15.07-43.31,15.07-32.49,0-60.03-23.31-60.03-59.56Zm94.87-7.3c-1.88-21.19-18.13-36.49-38.14-36.49s-35.55,15.07-38.13,36.49h76.27Z"/><path class="cls-2" d="m677.9,44.26h17.66l25.89,75.56c2.59,7.77,4,16.71,4,16.71,0,0,.94-8.95,3.3-16.48l23.31-75.8h16.71l23.54,75.8c2.35,7.53,3.3,16.48,3.3,16.48,0,0,1.18-8.95,4-16.71l25.89-75.56h17.65l-39.55,115.35h-15.54l-23.78-75.8c-2.12-6.59-3.77-16.71-3.77-16.71,0,0-1.41,10.12-3.53,16.71l-24.25,75.8h-15.3l-39.55-115.35Z"/><path class="cls-2" d="m839.61,101.7c0-33.43,26.6-59.79,60.26-59.79s60.26,26.36,60.26,59.79-26.6,59.56-60.26,59.56-60.26-26.37-60.26-59.56Zm102.17,0c0-24.25-18.13-42.37-41.9-42.37s-41.9,18.13-41.9,42.37,18.13,42.14,41.9,42.14,41.9-18.13,41.9-42.14Z"/><path class="cls-2" d="m969.08,101.7c0-33.43,26.6-59.79,60.26-59.79s60.26,26.36,60.26,59.79-26.6,59.56-60.26,59.56-60.26-26.37-60.26-59.56Zm102.17,0c0-24.25-18.13-42.37-41.9-42.37s-41.9,18.13-41.9,42.37,18.13,42.14,41.9,42.14,41.9-18.13,41.9-42.14Z"/><path class="cls-2" d="m1098.55,101.7c0-33.66,22.36-59.79,54.14-59.79,18.36,0,34.6,7.53,43.08,22.36V4.01h17.89v154.9h-17.18v-20.01c-8.48,15.07-25.19,22.36-43.79,22.36-31.78,0-54.14-26.37-54.14-59.56Zm97.22,0c0-24.01-17.18-42.37-39.08-42.37s-39.78,17.89-39.78,42.37,16.95,42.14,39.78,42.14,39.08-18.13,39.08-42.14Z"/></g><g><path class="cls-2" d="m340.42,213.55c0,13.73-9.64,24.25-22.99,24.25-8.57,0-16.17-5.16-19.28-12.18v24.64h-3.7v-60h3.6v10.71c3.41-6.92,10.91-11.69,19.38-11.69,13.34,0,22.99,10.42,22.99,24.25Zm-23.28,20.65c11.3,0,19.38-8.77,19.38-20.65s-8.38-20.65-19.29-20.65-19.09,9.16-19.09,20.65,8.38,20.65,18.99,20.65Z"/><path class="cls-2" d="m362.04,190.27h3.7v10.62c3.7-7.79,10.81-11.59,19.19-11.59v3.9c-11.59,0-19.19,8.67-19.19,18.99v24.64h-3.7v-46.56Z"/><path class="cls-2" d="m400.32,213.55c0-13.64,10.62-24.25,24.25-24.25s24.25,10.62,24.25,24.25-10.62,24.25-24.25,24.25-24.25-10.62-24.25-24.25Zm44.61,0c0-11.69-8.86-20.65-20.36-20.65s-20.36,8.96-20.36,20.65,8.86,20.65,20.36,20.65,20.36-8.96,20.36-20.65Z"/><path class="cls-2" d="m510.39,200.99v-28.25h3.7v64.09h-3.7v-11.2c-3.12,7.01-10.71,12.18-19.28,12.18-13.34,0-22.99-10.52-22.99-24.25s9.64-24.25,22.99-24.25c8.47,0,15.88,4.77,19.28,11.69Zm-19.09-8.08c-10.91,0-19.29,8.77-19.29,20.65s8.08,20.65,19.38,20.65c10.62,0,18.99-9.16,18.99-20.65s-8.28-20.65-19.09-20.65Z"/><path class="cls-2" d="m537.08,220.17v-29.9h3.7v29.61c0,10.23,5.16,14.32,14.03,14.32,9.64,0,15.78-8.86,15.78-16.56v-27.37h3.7v46.56h-3.61v-9.45c-3.02,7.11-10.03,10.42-16.56,10.42-10.52,0-17.04-4.97-17.04-17.63Z"/><path class="cls-2" d="m595.81,213.55c0-13.64,10.62-24.25,24.25-24.25,6.43,0,12.27,2.34,16.66,6.33l-2.44,2.73c-3.6-3.41-8.57-5.45-14.22-5.45-11.49,0-20.36,8.86-20.36,20.65s8.77,20.65,20.45,20.65c6.23,0,11.69-2.53,15.39-6.62l2.44,2.63c-4.38,4.68-10.71,7.6-17.92,7.6-13.64,0-24.25-10.62-24.25-24.25Z"/><path class="cls-2" d="m660.2,224.07v-30.58h-7.11v-3.21h7.11v-11.1l3.7-.49v11.59h17.92v3.21h-17.92v30.68c0,7.99,3.22,10.13,8.18,10.13s8.77-2.92,8.77-2.92l1.46,3.02c-1.46,1.07-5.36,3.41-10.23,3.41-6.62,0-11.88-2.63-11.88-13.73Z"/><path class="cls-2" d="m701.3,177.12c0-1.66,1.36-3.02,3.02-3.02s3.12,1.36,3.12,3.02c0,1.75-1.46,3.12-3.12,3.12s-3.02-1.36-3.02-3.12Zm1.17,13.15h3.7v46.56h-3.7v-46.56Z"/><path class="cls-2" d="m727.7,213.55c0-13.64,10.62-24.25,24.25-24.25s24.25,10.62,24.25,24.25-10.62,24.25-24.25,24.25-24.25-10.62-24.25-24.25Zm44.61,0c0-11.69-8.86-20.65-20.36-20.65s-20.36,8.96-20.36,20.65,8.86,20.65,20.36,20.65,20.36-8.96,20.36-20.65Z"/><path class="cls-2" d="m797.83,190.27h3.7v9.35c2.92-6.23,9.64-10.32,17.34-10.32,10.52,0,16.95,5.55,16.95,17.73v29.81h-3.7v-29.32c0-9.84-4.77-14.61-13.93-14.61-10.03,0-16.65,8.86-16.65,16.56v27.37h-3.7v-46.56Z"/><path class="cls-2" d="m856.27,230.4l1.85-2.92c3.9,4.48,9.06,6.72,15.58,6.72,8.96,0,14.51-4.48,14.51-9.84,0-6.62-6.72-8.28-13.44-9.93-8.38-1.95-16.56-4.09-16.56-12.66,0-7.69,8.18-12.47,15.68-12.47,5.75,0,10.42,1.56,14.9,5.26l-1.75,2.92c-3.7-3.12-7.99-4.58-13.15-4.58-6.33,0-11.88,3.9-11.88,8.86,0,6.23,6.72,7.69,13.54,9.16,8.18,1.85,16.46,4.58,16.46,13.44s-8.57,13.44-18.31,13.44-14.51-4.19-17.43-7.4Z"/></g></g></svg>