<?xml version="1.0" encoding="utf-8"?>
<!-- Generator: Adobe Illustrator 27.2.0, SVG Export Plug-In . SVG Version: 6.00 Build 0)  -->
<svg version="1.1" id="Layer_1" xmlns="http://www.w3.org/2000/svg" xmlns:xlink="http://www.w3.org/1999/xlink" x="0px" y="0px"
	 viewBox="0 0 792 612" style="enable-background:new 0 0 792 612;" xml:space="preserve">
<style type="text/css">
	.st0{fill:#1F6A95;}
	.st1{fill:#FFFFFF;}
</style>
<rect x="312.2" y="188.9" class="st0" width="161.8" height="161.8"/>
<g>
	<path class="st1" d="M409,244.6v-0.5c3.4-1.5,14.8-8.9,14.8-20c0-5.5-3.9-16.6-22-16.6c-8.3,0-14.5,2.1-17.9,3.8
		c-1.4,0.9-1.4,1.4-1.4,2.4c0,2.5,0.4,7.5,0.8,11.1c0.1,1,0.5,1.2,0.8,1.2c0.4,0,0.8-0.2,0.8-1.4c0-8.5,5.9-13.1,13.9-13.1
		c13.1,0,15.9,10.3,15.9,14.9c0,12.9-12.2,18.3-17.6,19.3c-1.4,0.2-2.5,0.5-2.5,1.4c0,0.8,0.8,1,2.9,1.4c7.2,1.4,20.5,6.7,20.5,21.5
		c0,13.2-8.9,19.6-20.1,19.6c-11.7,0-15.8-6.4-16.6-14.9c-0.1-1.1-0.2-1.4-0.6-1.5V273h-1.5c-4.5,1.6-10.9,2.8-19.1,3.7v3.2h1.9
		c2.6,0,4.4,0.2,5.4,0.5c1,0.4,1.9,1.3,2.5,2.8c0.6,1.4,0.9,5.5,0.9,12.2v17.2c0,6.3-0.1,10.1-0.3,11.5c-0.2,1.4-0.7,2.4-1.7,3.4
		c-1,0.9-3.2,1.4-6.4,1.4H360v3.2h30.5V329h-1.4c-3,0-5-0.5-6.2-1.3s-1.8-2-2-3.6c-0.2-1.5-0.3-5.3-0.3-11.4v-20.9
		c2.4,1.4,9,2.6,13.5,2.6c19.7,0,33.1-12.9,33.1-28.5C427.3,253.1,416,246.3,409,244.6z"/>
	<path class="st1" d="M373.7,255.3c2,0,3.7-0.7,5.1-2.2c1.4-1.4,2.1-3.2,2.1-5.2s-0.7-3.7-2.1-5.2c-1.4-1.4-3.1-2.2-5.1-2.2
		s-3.7,0.7-5.1,2.2c-1.4,1.4-2.1,3.2-2.1,5.2s0.7,3.8,2.1,5.2C370,254.6,371.7,255.3,373.7,255.3z"/>
</g>
</svg>
